HIERARCHY
ROOT hips
{
  OFFSET 0 10.6860622 2.3727825e-15
  CHANNELS 6 Xposition Yposition Zposition Yrotation Xrotation Zrotation
  JOINT leftUpperLeg
  {
    OFFSET 0.6642549969 -0.9402397400000004 0
    CHANNELS 3 Yrotation Xrotation Zrotation
    JOINT leftLowerLeg
    {
      OFFSET 0 -3.997221335632195 0
      CHANNELS 3 Yrotation Xrotation Zrotation
      JOINT leftFoot
      {
        OFFSET -0.13777839790000004 -4.6145792000000005 -0.22186036399999998
        CHANNELS 3 Yrotation Xrotation Zrotation
        JOINT leftToes
        {
          OFFSET -0.03777410834999995 -0.9130806927000008 0.85230013
          CHANNELS 3 Yrotation Xrotation Zrotation
          End Site
          {
            OFFSET -0.03777410834999995 -0.9130806927000008 0.85230013
          }
        }
      }
    }
  }
  JOINT rightUpperLeg
  {
    OFFSET -0.6642778626 -0.9402397400000004 0
    CHANNELS 3 Yrotation Xrotation Zrotation
    JOINT rightLowerLeg
    {
      OFFSET 0 -3.997221452859387 0
      CHANNELS 3 Yrotation Xrotation Zrotation
      JOINT rightFoot
      {
        OFFSET 0.1377926176 -4.6145792000000005 -0.22185782299999995
        CHANNELS 3 Yrotation Xrotation Zrotation
        JOINT rightToes
        {
          OFFSET 0.037780746850000047 -0.9130806927000008 0.85230167
          CHANNELS 3 Yrotation Xrotation Zrotation
          End Site
          {
            OFFSET 0.037780746850000047 -0.9130806927000008 0.85230167
          }
        }
      }
    }
  }
  JOINT spine
  {
    OFFSET 0 0.13988381660000015 0
    CHANNELS 3 Yrotation Xrotation Zrotation
    JOINT chest
    {
      OFFSET 0 0.6191039003973773 0
      CHANNELS 3 Yrotation Xrotation Zrotation
      JOINT upperChest
      {
        OFFSET 0 0.9855186130586943 0
        CHANNELS 3 Yrotation Xrotation Zrotation
        JOINT leftShoulder
        {
          OFFSET 0.1807663869 1.5087829790000005 0
          CHANNELS 3 Yrotation Xrotation Zrotation
          JOINT leftUpperArm
          {
            OFFSET 0.5985063006419806 0 0
            CHANNELS 3 Yrotation Xrotation Zrotation
            JOINT leftLowerArm
            {
              OFFSET 2.2993332369501065 0 0
              CHANNELS 3 Yrotation Xrotation Zrotation
              JOINT leftHand
              {
                OFFSET 2.395047042602395 0 0
                CHANNELS 3 Yrotation Xrotation Zrotation
                JOINT leftIndexProximal
                {
                  OFFSET 0.5766295810000004 0.04556643899499946 0.17265095988184
                  CHANNELS 3 Yrotation Xrotation Zrotation
                  JOINT leftIndexIntermediate
                  {
                    OFFSET 0.2957229000000008 -0.019352197700001517 -0.007932640616999987
                    CHANNELS 3 Yrotation Xrotation Zrotation
                    JOINT leftIndexDistal
                    {
                      OFFSET 0.19008243099999922 -0.012484908149998475 -0.002786250786000012
                      CHANNELS 3 Yrotation Xrotation Zrotation
                      End Site
                      {
                        OFFSET 0.19008243099999922 -0.012484908149998475 -0.002786250786000012
                      }
                    }
                  }
                }
                JOINT leftMiddleProximal
                {
                  OFFSET 0.5834975091000001 0.0524350405149987 0.02204081888183999
                  CHANNELS 3 Yrotation Xrotation Zrotation
                  JOINT leftMiddleIntermediate
                  {
                    OFFSET 0.33880573540000003 -0.019871473270000717 -0.00000971183179999946
                    CHANNELS 3 Yrotation Xrotation Zrotation
                    JOINT leftMiddleDistal
                    {
                      OFFSET 0.20676022730000088 -0.012221336379999448 0.0001471936708000235
                      CHANNELS 3 Yrotation Xrotation Zrotation
                      End Site
                      {
                        OFFSET 0.20676022730000088 -0.012221336379999448 0.0001471936708000235
                      }
                    }
                  }
                }
                JOINT leftLittleProximal
                {
                  OFFSET 0.5344154683999995 -0.012880921405001189 -0.24414037221816004
                  CHANNELS 3 Yrotation Xrotation Zrotation
                  JOINT leftLittleIntermediate
                  {
                    OFFSET 0.21758961730000093 -0.011650919939999227 0.011893592810000034
                    CHANNELS 3 Yrotation Xrotation Zrotation
                    JOINT leftLittleDistal
                    {
                      OFFSET 0.1475273964999999 -0.008152365682999818 0.006001092492999946
                      CHANNELS 3 Yrotation Xrotation Zrotation
                      End Site
                      {
                        OFFSET 0.1475273964999999 -0.008152365682999818 0.006001092492999946
                      }
                    }
                  }
                }
                JOINT leftRingProximal
                {
                  OFFSET 0.5799399463000003 0.026911854694997794 -0.12150566991816003
                  CHANNELS 3 Yrotation Xrotation Zrotation
                  JOINT leftRingIntermediate
                  {
                    OFFSET 0.26167887460000006 -0.013480186499999602 0.010996293000000053
                    CHANNELS 3 Yrotation Xrotation Zrotation
                    JOINT leftRingDistal
                    {
                      OFFSET 0.17667108799999987 -0.008990287899999228 0.0055541023999999065
                      CHANNELS 3 Yrotation Xrotation Zrotation
                      End Site
                      {
                        OFFSET 0.17667108799999987 -0.008990287899999228 0.0055541023999999065
                      }
                    }
                  }
                }
                JOINT leftThumbProximal
                {
                  OFFSET 0.11018806699999972 -0.09448718900500053 0.17047963138184
                  CHANNELS 3 Yrotation Xrotation Zrotation
                  JOINT leftThumbIntermediate
                  {
                    OFFSET 0.31062601459999983 -0.08126270900000132 0.15443142000000007
                    CHANNELS 3 Yrotation Xrotation Zrotation
                    JOINT leftThumbDistal
                    {
                      OFFSET 0.21627175790000086 -0.08833193599999878 0.018771167799999988
                      CHANNELS 3 Yrotation Xrotation Zrotation
                      End Site
                      {
                        OFFSET 0.21627175790000086 -0.08833193599999878 0.018771167799999988
                      }
                    }
                  }
                }
              }
            }
          }
        }
        JOINT neck
        {
          OFFSET 0 1.5463305265074576 0
          CHANNELS 3 Yrotation Xrotation Zrotation
          JOINT head
          {
            OFFSET 0 0.8456443600000344 0
            CHANNELS 3 Yrotation Xrotation Zrotation
            JOINT leftEye
            {
              OFFSET 0.30408573140000006 0.5104519199999995 0.1276382305
              CHANNELS 3 Yrotation Xrotation Zrotation
              End Site
              {
                OFFSET 0.30408573140000006 0.5104519199999995 0.1276382305
              }
            }
            JOINT rightEye
            {
              OFFSET -0.30409491089999996 0.5104519199999995 0.1276379445
              CHANNELS 3 Yrotation Xrotation Zrotation
              End Site
              {
                OFFSET -0.30409491089999996 0.5104519199999995 0.1276379445
              }
            }
            JOINT jaw
            {
              OFFSET -3.155239131000001e-7 -0.11984121820000082 0.60178107
              CHANNELS 3 Yrotation Xrotation Zrotation
              End Site
              {
                OFFSET -3.155239131000001e-7 -0.11984121820000082 0.60178107
              }
            }
          }
        }
        JOINT rightShoulder
        {
          OFFSET -0.1807303465 1.5087829790000005 0
          CHANNELS 3 Yrotation Xrotation Zrotation
          JOINT rightUpperArm
          {
            OFFSET -0.5985063796536958 0 0
            CHANNELS 3 Yrotation Xrotation Zrotation
            JOINT rightLowerArm
            {
              OFFSET -2.2993322059002854 0 0
              CHANNELS 3 Yrotation Xrotation Zrotation
              JOINT rightHand
              {
                OFFSET -2.395045314457259 0 0
                CHANNELS 3 Yrotation Xrotation Zrotation
                JOINT rightIndexProximal
                {
                  OFFSET -0.5764487688300002 0.0441371204405987 0.17361932004999997
                  CHANNELS 3 Yrotation Xrotation Zrotation
                  JOINT rightIndexIntermediate
                  {
                    OFFSET -0.29573011380000047 -0.01934826376999843 -0.007698921482999974
                    CHANNELS 3 Yrotation Xrotation Zrotation
                    JOINT rightIndexDistal
                    {
                      OFFSET -0.19008373999999884 -0.012503266380000655 -0.0026365778999999897
                      CHANNELS 3 Yrotation Xrotation Zrotation
                      End Site
                      {
                        OFFSET -0.19008373999999884 -0.012503266380000655 -0.0026365778999999897
                      }
                    }
                  }
                }
                JOINT rightMiddleProximal
                {
                  OFFSET -0.5834852037300005 0.05211639405060153 0.02307162440000001
                  CHANNELS 3 Yrotation Xrotation Zrotation
                  JOINT rightMiddleIntermediate
                  {
                    OFFSET -0.33880114510000003 -0.019952774050000954 0.0002455003561999819
                    CHANNELS 3 Yrotation Xrotation Zrotation
                    JOINT rightMiddleDistal
                    {
                      OFFSET -0.20675694929999955 -0.012273788999999091 0.00030209124000002766
                      CHANNELS 3 Yrotation Xrotation Zrotation
                      End Site
                      {
                        OFFSET -0.20675694929999955 -0.012273788999999091 0.00030209124000002766
                      }
                    }
                  }
                }
                JOINT rightLittleProximal
                {
                  OFFSET -0.5346811737299992 -0.011214256288399227 -0.24363941305000003
                  CHANNELS 3 Yrotation Xrotation Zrotation
                  JOINT rightLittleIntermediate
                  {
                    OFFSET -0.21757715980000092 -0.011771559690000988 0.01201554387
                    CHANNELS 3 Yrotation Xrotation Zrotation
                    JOINT rightLittleDistal
                    {
                      OFFSET -0.1475201849000004 -0.00822055339600003 0.006082065407000015
                      CHANNELS 3 Yrotation Xrotation Zrotation
                      End Site
                      {
                        OFFSET -0.1475201849000004 -0.00822055339600003 0.006082065407000015
                      }
                    }
                  }
                }
                JOINT rightRingProximal
                {
                  OFFSET -0.5800810755299999 0.027657985680600072 -0.12066365025000003
                  CHANNELS 3 Yrotation Xrotation Zrotation
                  JOINT rightRingIntermediate
                  {
                    OFFSET -0.26166445029999974 -0.013623118409999302 0.011164098990000045
                    CHANNELS 3 Yrotation Xrotation Zrotation
                    JOINT rightRingDistal
                    {
                      OFFSET -0.17666387530000027 -0.009072900100000503 0.005668185599999959
                      CHANNELS 3 Yrotation Xrotation Zrotation
                      End Site
                      {
                        OFFSET -0.17666387530000027 -0.009072900100000503 0.005668185599999959
                      }
                    }
                  }
                }
                JOINT rightThumbProximal
                {
                  OFFSET -0.10997596379000074 -0.09577489355940072 0.16989765924999997
                  CHANNELS 3 Yrotation Xrotation Zrotation
                  JOINT rightThumbIntermediate
                  {
                    OFFSET -0.31036620999999986 -0.08229339117999834 0.15440884469999996
                    CHANNELS 3 Yrotation Xrotation Zrotation
                    JOINT rightThumbDistal
                    {
                      OFFSET -0.21631306399999906 -0.08825326400000111 0.018656797720000014
                      CHANNELS 3 Yrotation Xrotation Zrotation
                      End Site
                      {
                        OFFSET -0.21631306399999906 -0.08825326400000111 0.018656797720000014
                      }
                    }
                  }
                }
              }
            }
          }
        }
      }
    }
  }
}
MOTION
Frames: 7
Frame Time: 0.03333333333333333
0 11.682712981546562 0 0 0 0 0 0 -5.826343164929014 -0.3712483961610101 -3.6333298826370974 5.838118207697276 0 0 0 0 0 0 0 0 5.826343164929014 0.3712483961610101 -3.6333298826370974 -5.838118207697276 0 0 0 0 0 0 0 -4.610651315171937 0 0 3.0831277533083026 0 0 0 0 0 1.5275236235667615 0 0 0 0 0 0 0 0 0 0 0 0 0 0 0 0 0 0 0 0 0 0 0 0 0 0 0 0 0 0 0 0 0 0 0 0 0 0 0 0 0 0 0 0 0 0 0 0 0 0 0 0 0 0 0 0 1.5275236235667615 0 0 0 0 0 0 0 0 0 0 0 0 0 0 1.5275236235667615 0 0 0 0 0 0 0 0 0 0 0 0 0 0 0 0 0 0 0 0 0 0 0 0 0 0 0 0 0 0 0 0 0 0 0 0 0 0 0 0 0 0 0 0 0 0 0 0 0 0 0 0 0 0 0
-0.10561289554348381 -8.254479453854357 4.176458038423829 -180 -36.43379010648038 -5.179553677587657e-15 84.19579515579167 -50.71938583082579 -35.63730057767429 -61.53657996993325 26.600746944101083 -32.586319385109064 43.84954133181081 18.94737156263571 26.36590448756602 0 0 0 -84.23493177037793 -50.73171292496963 35.66435161576785 61.55401791700918 26.617100798492192 32.58444014626062 -43.86495963248815 18.93473266607561 -26.382829859267414 0 0 0 -0.759550960332756 33.806946898675655 -2.695796579358392 1.105094708093677 40.07367148488047 0.8842960018586777 0 0 0 -20.497623919450117 9.373118626890887 10.983741384408832 -24.21990459481853 -21.766603158636148 -51.73909620276802 1.1862673634745855 0.9472916770511245 -6.7248531820796 -22.0250549240707 -11.530886631964144 2.1475333575550857 0 0 0 0 0 0 0 0 0 0 0 0 0 0 0 0 0 0 0 0 0 0 0 0 0 0 0 0 0 0 0 0 0 0 0 0 0 0 0 0 0 0 0 0 0 0 16.706032842668208 0 0 10.422686231294554 0 0 0 0 0 0 0 0 0 0 21.29642108954353 10.303109592200306 -9.392682492099782 23.85669819286432 -21.31290358068148 50.98758100630111 -1.4027467256341049 0.954702065660745 6.306235201564148 22.931713601296 -13.147120337291534 -2.6929126845850213 0 0 0 0 0 0 0 0 0 0 0 0 0 0 0 0 0 0 0 0 0 0 0 0 0 0 0 0 0 0 0 0 0 0 0 0 0 0 0 0 0 0 0 0 0
-0.10561289554348381 -8.254479453854357 4.127729006037769 -180 -37.87140020668823 -5.4567359279744075e-15 83.34778112989625 -50.800734460220355 -33.787700227620945 -61.89138947822996 27.19824659268527 -33.272730279137505 43.268284350198016 18.4792484637195 26.36949356375583 0 0 0 -83.38466819960155 -50.81292626799844 33.81288644196215 61.9077004671522 27.213731026364 33.27089945231197 -43.28297188320613 18.467297974781626 -26.385639812305342 0 0 0 -0.7560815516694727 33.41814290914352 -2.6895596064594907 1.099719121924567 39.740493923566675 0.8758299595282618 0 0 0 -20.291599895328464 9.958593084461524 10.40852915558996 -24.21990627161552 -21.766603158636148 -51.73909392563877 1.1862673634745855 0.9472916770511245 -6.7248531820796 -20.933227981123824 -11.092198828495649 0.9828239455102452 0 0 0 0 0 0 0 0 0 0 0 0 0 0 0 0 0 0 0 0 0 0 0 0 0 0 0 0 0 0 0 0 0 0 0 0 0 0 0 0 0 0 0 0 0 0 15.884616145956853 0 0 9.844819177971152 0 0 0 0 0 0 0 0 0 0 21.055396019825853 10.833593388637107 -8.906728123228238 23.856693357634907 -21.31290174778103 50.987586162244064 -1.4027467256341049 0.954702065660745 6.306235201564148 21.76487040964916 -12.62870596766889 -1.473856510598053 0 0 0 0 0 0 0 0 0 0 0 0 0 0 0 0 0 0 0 0 0 0 0 0 0 0 0 0 0 0 0 0 0 0 0 0 0 0 0 0 0 0 0 0 0
-0.10561289554348381 -8.254479453854357 4.07900024204398 -180 -39.312209193461946 -5.74560733855517e-15 82.49310999704305 -50.86480946552281 -31.93005331071023 -62.25648059832126 27.79235453737006 -33.967589326210685 42.688216202134214 18.0109080173598 26.378085054905753 0 0 0 -82.52775143731915 -50.876801535808674 31.953381261198373 62.271630367597886 27.806978793379685 33.96576500438103 -42.702195623600105 17.99963961511362 -26.39346044647912 0 0 0 -0.7526773795493839 33.029279797405465 -2.6833765962472684 1.09443305657529 39.407279638976284 0.8674445409226995 0 0 0 -20.091025603430854 10.546549378785702 9.833931715026877 -24.21990459481853 -21.766604997274438 -51.73909392563877 1.1862673634745855 0.9472916770511245 -6.724854030095122 -19.84974044977943 -10.6307939961228 -0.17419840618271276 0 0 0 0 0 0 0 0 0 0 0 0 0 0 0 0 0 0 0 0 0 0 0 0 0 0 0 0 0 0 0 0 0 0 0 0 0 0 0 0 0 0 0 0 0 0 15.060316349412265 0 0 9.265985128700132 0 0 0 0 0 0 0 0 0 0 20.818371567534957 11.366418266997933 -8.421846830045451 23.85669819286432 -21.31290358068148 50.98758100630111 -1.4027467256341049 0.954702065660745 6.306235201564148 20.608846678536487 -12.084848586388482 -0.2650997790952374 0 0 0 0 0 0 0 0 0 0 0 0 0 0 0 0 0 0 0 0 0 0 0 0 0 0 0 0 0 0 0 0 0 0 0 0 0 0 0 0 0 0 0 0 0
-0.10561289554348381 -8.254479453854357 3.98154217727186 -180 -42.201611583364915 -6.362723142954724e-15 80.7695933834943 -50.94033089994228 -28.196991882312584 -63.01813380217636 28.96956288246834 -35.38329953724263 41.53149245405601 17.07391482481789 26.41011000085362 0 0 0 -80.79970811066354 -50.95173528848976 28.21656232814342 63.030905793749454 28.98250579054317 35.38141860169217 -41.54403955073119 17.06397983256971 -26.423913626409554 0 0 0 -0.7460610745160943 32.25140527686609 -2.671171777205251 1.0841190835001737 38.74074216729908 0.8509041773262932 0 0 0 -19.70639143464952 11.72941210428687 8.68640476763371 -24.21990459481853 -21.766601319997882 -51.739091038244666 1.186267470188001 0.9472916770511245 -6.724852334064076 -17.710794178649724 -9.641469487707651 -2.4621903365484377 0 0 0 0 0 0 0 0 0 0 0 0 0 0 0 0 0 0 0 0 0 0 0 0 0 0 0 0 0 0 0 0 0 0 0 0 0 0 0 0 0 0 0 0 0 0 13.403377693351374 0 0 8.105515273801576 0 0 0 0 0 0 0 0 0 0 20.356450398605094 12.438727674287355 -7.455216518992887 23.856693357634907 -21.31290174778103 50.98758100630111 -1.4027467256341049 0.954702065660745 6.306235201564148 18.3326807816288 -10.923029955416567 2.1181618301539626 0 0 0 0 0 0 0 0 0 0 0 0 0 0 0 0 0 0 0 0 0 0 0 0 0 0 0 0 0 0 0 0 0 0 0 0 0 0 0 0 0 0 0 0 0
-0.10561289554348381 -8.254479453854357 3.9328134132780717 -180 -43.64929604009469 -6.693442945052913e-15 79.9035833049955 -50.95148050210649 -26.324723982467763 -63.41500430314559 29.552241382714122 -36.104474501056885 40.9547470252287 16.605432993887973 26.43346526208654 0 0 0 -79.9314809050442 -50.96251891201498 26.3424610119604 63.42655566811537 29.564361111790777 36.10252774261027 -40.966597934175795 16.59616398764019 -26.446501457964118 0 0 0 -0.7428456798129901 31.862395797087004 -2.6651455413368415 1.0790896102226277 38.407436881084216 0.8427492253974442 0 0 0 -19.522413476957254 12.324060998762208 8.113379537634623 -24.21990459481853 -21.766601319997882 -51.739091038244666 1.1862673634745855 0.9472916770511245 -6.7248531820796 -16.656762957192914 -9.114473580775819 -3.591762360057258 0 0 0 0 0 0 0 0 0 0 0 0 0 0 0 0 0 0 0 0 0 0 0 0 0 0 0 0 0 0 0 0 0 0 0 0 0 0 0 0 0 0 0 0 0 0 12.570880659648463 0 0 7.523937375343641 0 0 0 0 0 0 0 0 0 0 20.131595413429395 12.978029721396238 -6.973416614300177 23.856693357634907 -21.31290174778103 50.987583313881714 -1.4027467256341049 0.954702065660745 6.306235201564148 17.214086202271954 -10.306292574277423 3.291135974065317 0 0 0 0 0 0 0 0 0 0 0 0 0 0 0 0 0 0 0 0 0 0 0 0 0 0 0 0 0 0 0 0 0 0 0 0 0 0 0 0 0 0 0 0 0
-0.10561289554348381 -8.254479453854357 3.884084380892012 -180 -45.09836251711753 -7.040842312054495e-15 79.03673485670721 -50.94479150395558 -24.450831037100322 -63.82277198275553 30.130684063443674 -36.83474701304715 40.379064537653456 16.13708286257384 26.461695164340664 0 0 0 -79.06244258857741 -50.95538376586463 24.466754707096623 63.83308467665139 30.142001461758017 36.83271868845666 -40.390203730808366 16.128467095053157 -26.473952662262032 0 0 0 -0.7396925741912781 31.47337131365322 -2.6591697903011333 1.0741437297335295 38.07411734361776 0.834667866990519 0 0 0 -19.34406306866316 12.920687671206203 7.540781779870674 -24.21990459481853 -21.766604997274438 -51.73909392563877 1.1862673634745855 0.9472916770511245 -6.7248531820796 -15.613888267647443 -8.566597634599505 -4.7108545309854755 0 0 0 0 0 0 0 0 0 0 0 0 0 0 0 0 0 0 0 0 0 0 0 0 0 0 0 0 0 0 0 0 0 0 0 0 0 0 0 0 0 0 0 0 0 0 11.735799445367649 0 0 6.941500996121722 0 0 0 0 0 0 0 0 0 0 19.91085743362082 13.519315616172442 -6.492590413193442 23.856693357634907 -21.31290174778103 50.987583313881714 -1.4027467256341049 0.954702065660745 6.306235201564148 16.109410729155456 -9.66656121125194 4.450744861563311 0 0 0 0 0 0 0 0 0 0 0 0 0 0 0 0 0 0 0 0 0 0 0 0 0 0 0 0 0 0 0 0 0 0 0 0 0 0 0 0 0 0 0 0 0
